<svg width="48" height="48" viewBox="0 0 48 48" fill="none" xmlns="http://www.w3.org/2000/svg">
<g clip-path="url(#clip0_15_2)">
<path d="M30.12 10.566L41.434 21.88C41.9958 22.4425 42.3114 23.205 42.3114 24C42.3114 24.795 41.9958 25.5575 41.434 26.12L30.122 37.436C29.5592 37.9988 28.7959 38.315 28 38.315C27.2041 38.315 26.4408 37.9988 25.878 37.436C25.3152 36.8732 24.999 36.1099 24.999 35.314C24.999 34.5181 25.3152 33.7548 25.878 33.192L32.07 27H9C8.20435 27 7.44129 26.6839 6.87868 26.1213C6.31607 25.5587 6 24.7956 6 24C6 23.2043 6.31607 22.4413 6.87868 21.8787C7.44129 21.3161 8.20435 21 9 21H32.07L25.88 14.808C25.3175 14.2452 25.0016 13.482 25.0017 12.6863C25.0019 11.8906 25.3182 11.1275 25.881 10.565C26.4438 10.0025 27.207 9.68655 28.0027 9.68674C28.7984 9.68692 29.5615 10.0032 30.124 10.566H30.12Z" fill="#F8F8F8"/>
</g>
<defs>
<clipPath id="clip0_15_2">
<rect width="48" height="48" fill="white"/>
</clipPath>
</defs>
</svg>
